<svg xmlns="http://www.w3.org/2000/svg" version="1.1" xmlns:xlink="http://www.w3.org/1999/xlink" width="1500" height="1500" viewBox="0 0 1500 1500"><rect width="1500" height="1500" x="0" y="0" id="background" stroke="transparent" fill="#ffffff"></rect><svg xml:space="preserve" width="1000" height="1000" data-version="2" data-id="lg_VV8LY6KziSUH0zBobK" viewBox="0 0 569 147" x="250" y="250"><rect width="100%" height="100%" fill="transparent"></rect><path fill="#2d2d2d" d="m43.425 39.401 6.9 30.85q7.96-1.22 13.68-2.23 5.73-1 10.84-2.1 5.11-1.09 11.32-2.31 1.92 2.88 2.75 6.55.83 3.67.83 7.26 0 5.59-1.48 10.44-1.49 4.85-2.97 6.51-1.58.27-3.19.35-1.62.09-3.28.09-6.91 0-13.81-1.97-6.91-1.96-13.11-5.46l-.44.44q3.23 9.09 5.55 18.4 2.32 9.3 1.36 19.44-.44 5.6-5.21 9.84-4.76 4.24-11.1 6.55-6.33 2.32-11.58 2.32-5.5 0-10.27-2.84-4.76-2.84-8.3-6.82-3.54-3.98-5.29-7.3l5.68-11.97h20.37q-6.91-21.33-11.63-35.71-4.72-14.37-7.64-23.29-2.93-8.91-4.5-13.72-1.58-4.81-2.23-6.91-.66-2.09-.79-2.88t-.22-1.75q0-5.42 2.58-12.23 2.58-6.82 6.69-11.02l39.24 8.22 30.94-8.92q4.2 2.19 6.21 7.56 2.01 5.38 2.01 11.58 0 6.65-2.28 12.94-2.27 6.29-6.73 9.35-9.96-1.48-20.36-3.93-10.4-2.45-20.54-5.33"></path><rect width="87.67" height="137.14" x="-43.84" y="-68.57" fill="none" rx="0" ry="0" transform="translate(50 76.3)"></rect><path fill="#2d2d2d" d="M142.015 144.371q-4.37-.44-10.05-1.71-5.68-1.26-11.41-3.14-5.72-1.88-10.44-4.15-4.72-2.28-7.08-4.64-3.15-20.01-4.94-38.98-1.79-18.96.92-37.06 1.92-2.44 6.9-5.24 4.98-2.8 11.19-5.38 6.21-2.57 11.89-4.41 5.68-1.84 9-2.27 7.34.7 15.6 3.45t15.43 6.82q7.16 4.06 11.01 8.69.87 3.94 1.14 8.26.26 4.33.26 11.67 0 8.65-1.05 18.79-1.05 10.14-2.62 19.14-1.58 9.01-3.06 14.43-1.66 1.92-6.12 4.71-4.46 2.8-8.22 4.72-5.59 2.8-9.83 4.33-4.24 1.53-8.52 1.97m1.92-20.98 4.81-3.32q.44-4.81.57-9.66.13-4.85.13-9.74 0-6.65-.35-13.55-.35-6.91-1.14-14.42l-13.46-5.51-5.24 2.54q-1.05 10.48-1.05 21.06 0 6.47.31 13.07.3 6.6.91 13.24 2.71 1.75 6.34 3.54t8.17 2.75"></path><rect width="84.58" height="106.98" x="-42.29" y="-53.49" fill="none" rx="0" ry="0" transform="translate(139.64 91.38)"></rect><path fill="#2d2d2d" d="M218.925 144.371q-4.19 0-8.21-.79-4.02-.79-6.82-3.41-1.31-1.22-3.8-4.59-2.49-3.36-4.02-7.56-1.53-4.19-.05-7.86l7-17.31-15.65-53.14q3.5-5.07 9.62-7.65 6.11-2.58 12.67-2.58 7.17 0 12.67 2.71l-.61 52.62.96.18q.88-4.03 2.01-11.06 1.14-7.04 2.54-15.17 1.4-8.12 3.19-15.64 1.79-7.52 4.06-12.41 2.8-.7 5.55-.96 2.75-.27 5.29-.27 8.91-.08 15.73 2.41t10.4 4.94q1.23 8.65.57 18.18-.66 9.52-2.14 18.09-1.49 8.56-2.97 14.33-6.21 3.5-12.02 3.63-5.81.13-11.58-1.27.09-2.71.09-7.43v-9.83q0-5.11-.09-8.78l-4.28-.7q-1.75 5.15-3.94 12.89-2.18 7.73-4.41 16.3t-4.33 16.43l16-2.1 4.98 11.72q-5.33 8.39-12.72 12.23-7.38 3.85-15.69 3.85"></path><rect width="85.09" height="104.91" x="-42.55" y="-52.46" fill="none" rx="0" ry="0" transform="translate(230.42 92.42)"></rect><path fill="#2d2d2d" d="M300.035 144.371q-1.83-.26-5.46-1.88-3.63-1.62-7.25-4.02-3.63-2.41-5.64-5.03.44-12.76 2.49-25.69 2.05-12.94 5.02-22.99-3.75-12.24-6.38-22.99-2.62-10.75-4.67-22.07-2.06-11.32-4.33-25.21 4.28-5.33 12.28-9.05 8-3.71 16.04-3.8 3.85-.09 7.39.87 3.54.97 6.42 3.24.52 11.53-.04 26.44-.57 14.9-1.8 30.85-1.22 15.95-2.79 30.63-1.58 14.69-3.15 25.79l.96.44q6.12-10.14 11.5-21.51 5.37-11.36 9.92-22.2-4.02-3.32-7.35-7.69-3.32-4.37-5.85-10.22 2.8-5.77 8.17-10.4 5.38-4.64 11.76-7.48 6.38-2.84 11.97-3.01 3.93 3.76 7.34 9.66 3.41 5.89 5.51 12.49 2.1 6.6 2.01 12.55-2.45 4.19-8.3 12.71-5.86 8.52-13.81 17.61 1.31 1.93 4.02 4.94 2.71 3.02 4.8 5.12 5.16-2.63 10.32-8.13l10.31 7.95q0 6.91-.7 11.19-.7 4.28-2.88 8.91-2.89 6.3-7.61 9.18-4.72 2.89-10.49 2.8-4.1 0-8.82-1.49-6.12-1.92-9.92-8.35-3.81-6.42-5.9-13.76-6.21 6.64-12.28 12.85-6.08 6.2-12.81 10.75"></path><rect width="97.63" height="142.79" x="-48.81" y="-71.4" fill="none" rx="0" ry="0" transform="translate(323.13 73.5)"></rect><path fill="#2d2d2d" d="M403.435 144.371q-4.2 0-8.22-.79-4.02-.79-6.81-3.41-1.31-1.22-3.81-4.59-2.49-3.36-4.02-7.56-1.53-4.19-.04-7.86l6.99-17.31-15.64-53.14q3.49-5.07 9.61-7.65 6.12-2.58 12.68-2.58 7.16 0 12.67 2.71l-.61 52.62.96.18q.87-4.03 2.01-11.06 1.13-7.04 2.53-15.17 1.4-8.12 3.19-15.64 1.79-7.52 4.07-12.41 2.79-.7 5.55-.96 2.75-.27 5.29-.27 8.91-.08 15.73 2.41t10.4 4.94q1.22 8.65.57 18.18-.66 9.52-2.14 18.09-1.49 8.56-2.98 14.33-6.2 3.5-12.01 3.63-5.82.13-11.58-1.27.08-2.71.08-7.43v-9.83q0-5.11-.08-8.78l-4.29-.7q-1.75 5.15-3.93 12.89-2.19 7.73-4.41 16.3-2.23 8.57-4.33 16.43l15.99-2.1 4.99 11.72q-5.34 8.39-12.72 12.23-7.39 3.85-15.69 3.85"></path><rect width="85.08" height="104.91" x="-42.54" y="-52.46" fill="none" rx="0" ry="0" transform="translate(414.93 92.42)"></rect><path fill="#2d2d2d" d="M489.175 144.371q-2.45 0-4.72-1.27-2.27-1.27-4.89-3.19-2.1-1.57-4.98-3.32-2.89-1.75-5.03-3.8-2.14-2.06-2.14-4.33l7.34-35.92-13.55-37.67q2.45-6.03 7.65-9.62 5.2-3.58 11.36-5.15 6.16-1.58 11.5-1.58 5.94 0 9.09 1.49.43 4.81.65 10.18.22 5.38.22 11.06 0 12.85-.96 24.73-.96 11.89-3.5 23.86l2.62 1.23q2.45-2.36 5.38-7.17 2.93-4.81 5.72-10.36 2.8-5.55 4.86-10.4 2.05-4.85 2.66-7.3-1.05-12.49-1.57-19.4-.53-6.9-.74-10.09-.22-3.19-.22-4.59 1.4-.96 5.5-1.71 4.11-.74 9.18-.74 15.3 0 24.21 10.58v.96q0 3.06-1.18 10.7-1.18 7.65-3.28 17.48-2.09 9.84-4.8 19.58-2.71 9.75-5.77 17.09l15.12-8.04 7.43 10.57q-2.97 6.91-6.86 12.9-3.89 5.98-8.44 9.61-4.54 3.63-9.61 3.63-4.11 0-8.79-2.41-4.67-2.4-8.26-6.33-1.39-1.58-2.97-3.54-1.57-1.97-1.57-6.34 0-.61.04-1.22.05-.61.13-1.23.7-6.64 1.4-12.15.7-5.5 1.58-11.36l-1.32-.61q-2.18 5.68-5.59 13.33-3.41 7.65-7.34 14.95-3.93 7.29-7.95 12.1-4.03 4.81-7.61 4.81"></path><rect width="101.13" height="105.85" x="-50.56" y="-52.92" fill="none" rx="0" ry="0" transform="translate(512.27 91.95)"></rect></svg></svg>